<?xml version="1.0" encoding="UTF-8"?><svg id="Layer_1" xmlns="http://www.w3.org/2000/svg" viewBox="0 0 571.59 347.08"><defs><style>.cls-1{fill:#d8315b;}.cls-1,.cls-2{stroke-width:0px;}.cls-2{fill:#fffaff;}</style></defs><path class="cls-2" d="M88.71,210.57l-1.43,15.86H26.39l20.46-111h100.37l20.46,111h-61.84l-1.43-15.86h-15.7ZM99.17,150.94h-5.23l-2.54,29.65h10.47l-2.7-29.65Z"/><path class="cls-2" d="M288.5,164.58v61.84h-52.96v-53.75c0-6.34-1.43-8.56-5.55-8.56-1.74,0-3.49.48-4.92,1.43v60.89h-52.96v-98.31h50.58l1.11,13h.32c6.98-11.26,16.97-16.17,32.51-16.17,23.15,0,31.87,10.94,31.87,39.64Z"/><path class="cls-2" d="M414.55,204.7c0,9.51.48,15.22,1.59,21.72h-52.17l-1.11-13h-.32c-6.5,10.94-16.49,16.17-30.13,16.17-25.05,0-37.58-17.6-37.58-51.54s13.8-53.12,41.7-53.12c10.31,0,18.39,2.38,24.74,7.29h.32v-16.81h52.96v89.27ZM350.17,177.27c0,9.67,1.74,13.16,6.66,13.16,1.9,0,3.49-.48,4.76-1.43v-23.47c-1.27-.95-2.85-1.43-4.76-1.43-4.92,0-6.66,3.49-6.66,13.16Z"/><path class="cls-2" d="M477.66,131.91c0,13.32-8.72,19.66-27.27,19.66s-27.27-6.34-27.27-19.66,8.72-19.66,27.27-19.66,27.27,6.34,27.27,19.66ZM476.87,226.42h-52.96v-73.73c7.45,3.17,16.17,4.76,26.48,4.76s19.19-1.59,26.48-4.76v73.73Z"/><path class="cls-1" d="M538.39,189.16c-4.92-2.7-13.64-4.92-24.9-4.92s-19.82,2.22-24.9,4.92l-4.76-73.73h59.3l-4.76,73.73ZM540.77,209.93c0,13.32-8.72,19.66-27.27,19.66s-27.27-6.34-27.27-19.66,8.72-19.66,27.27-19.66,27.27,6.34,27.27,19.66Z"/></svg>