<?xml version="1.0" encoding="UTF-8"?><svg id="Layer_1" xmlns="http://www.w3.org/2000/svg" viewBox="0 0 800 347.08"><defs><style>.cls-1{fill:#883677;}.cls-1,.cls-2{stroke-width:0px;}.cls-2{fill:#ff958c;}</style></defs><path class="cls-1" d="m150.03,87.59c21.04-1.96,42.07-4.39,63.11-7.17-.65,7.29-1.3,14.58-1.95,21.87-10.82,1.42-21.65,2.74-32.47,3.96-.41,4.78-.81,9.56-1.22,14.34,8.42-.94,16.85-1.95,25.27-3.01-.66,7.23-1.31,14.47-1.97,21.7-8.42,1.06-16.85,2.05-25.27,2.98-1.02,11.89-2.04,23.79-3.06,35.68-10.21,1.11-20.42,2.11-30.63,3.01,2.73-31.11,5.46-62.23,8.19-93.35Z"/><path class="cls-1" d="m220.01,125.18c.48-5.16-1.06-6.8-3.97-6.41-1.84.25-2.86,1-4.04,1.62-.32-3.61-.63-7.22-.95-10.83,3.36-2.3,9.13-5.37,18.48-6.68,9.19-1.29,15.44,2.71,18.17,9.1,3.65-7.95,12.92-13.67,19.51-14.71,10.72-1.68,18.76,3.17,19.68,13.52.58,6.53-4.06,19.21-18.3,21.46-3.52.55-6.17.5-8.38.07,0,0,2.35-3.3,2.02-7.1-.27-3.05-2.63-5.15-6.3-4.59-4.75.72-7.67,4.55-8.63,16.58-.89,10.47-1.78,20.95-2.67,31.42-9.55,1.41-19.1,2.75-28.64,4.03,1.35-15.82,2.7-31.64,4.04-47.47Z"/><path class="cls-1" d="m290.19,127.22c1.81-20.05,15.71-36.84,34.55-40.13,4.29-.74,12.41-.32,17.61,3.85,1.44-1.95,2.87-3.91,4.31-5.86,7.1-1.27,14.19-2.54,21.29-3.83-1.35,15.89-2.7,31.77-4.04,47.65-.36,4.7,1.06,6.75,3.97,6.23,1.84-.33,2.86-1.14,4.04-1.81.32,3.6.63,7.19.95,10.79-3.36,2.46-9.14,5.83-18.48,7.51-8.27,1.48-14.59-1.41-17.36-6.32-4.15,7.68-10.31,11.85-20.11,13.54-18.53,3.19-28.43-12.2-26.73-31.61Zm46.09-4.49c.38-5.06.77-10.12,1.15-15.18-2.19-1.93-4.61-2.89-8.13-2.27-5.67.99-9.59,7.69-10.55,17.89-1.08,10.68,1.87,15.89,7.84,14.84,5.21-.91,9.13-7.62,9.7-15.28Z"/><path class="cls-1" d="m426.62,123.48c-.75-8.51,3.73-17.66,2.93-26.77-.33-3.8-2.69-5.84-6.37-5.17-4.75.87-7.98,4.85-8.94,16.91-.89,10.5-1.78,21.01-2.67,31.51-9.55,1.75-19.1,3.5-28.64,5.24,1.35-15.89,2.7-31.77,4.04-47.66.48-5.18-1.06-6.75-3.97-6.22-1.84.34-2.86,1.14-4.04,1.82-.32-3.6-.63-7.19-.95-10.79,3.36-2.46,9.13-5.83,18.48-7.54,9.19-1.68,15.44,2.11,18.17,8.4,4.06-8.62,14.45-14.37,21.04-15.57,13.02-2.37,21.53,4.13,22.55,15.68.72,8.2-3.57,26.57-3.1,31.89.23,2.58,1.88,3.67,4.02,3.29,1.99-.36,2.86-1.13,4.04-1.8.32,3.6.63,7.19.95,10.79-3.36,2.45-9.59,5.88-18.79,7.55-9.04,1.64-17.81-.77-18.76-11.56Z"/><path class="cls-1" d="m470.53,93.95c1.82-19.92,17.8-36.36,38.32-39.83,9.34-1.58,16.82.44,21.69,2.74-.63,6.33-1.27,12.66-1.9,18.98-4.29-2.85-9.38-4.18-15.05-3.23-6.89,1.15-14.15,7.02-14.99,16.89-1.01,11.44,6.1,16.24,13.14,15.06,5.82-.98,9.02-3.51,12.31-6.67,1.73,4.4,3.47,8.8,5.2,13.2-3.41,5.34-12.76,12.11-24.56,14.11-23.13,3.94-35.82-12.89-34.17-31.26Z"/><path class="cls-1" d="m537.1,83.74c1.28-20.73,19.24-37.36,39.15-40.21,12.71-1.83,24.16,1.46,25.19,13.21,1.01,11.48-8.25,24.12-35.48,33.82,1.24,3.52,5.72,5.02,9.61,5.23,7.64.44,16.08-4.11,22.07-10,1.74,4.55,3.49,9.11,5.23,13.67-7.84,7.82-16.52,12.98-30.92,15.07-23.44,3.43-36.03-12.53-34.84-30.8Zm43.6-19.54c.05-2.94-1.49-4.58-4.7-4.11-5.51.79-10.56,6.94-11.38,18.8,10.91-4.7,15.93-11.1,16.08-14.68Z"/><path class="cls-1" d="m609.06,101.15c1.35-5.83,2.69-11.66,4.04-17.49,6.95,3.31,15.12,6.49,25.69,5.34,4.6-.5,6.63-1.94,6.6-4.1.05-2.94-3.03-2.78-8.31-3.12-20.36-1.12-25.97-10.19-25.67-20.9.3-10.66,8.82-23.1,29.8-25.39,10.72-1.15,19.76,1.54,26.17,4.21-1.37,5.47-2.75,10.95-4.12,16.43-8.02-3.43-15.37-4.38-21.65-3.7-3.68.39-5.28,1.5-5.44,3.22-.12,2.17,2.4,2.67,5.82,2.92,22.07,1.39,28.35,11.48,28.15,19.79-.25,14.86-10.28,25.36-31.26,27.62-12.41,1.35-22.07-1.17-29.83-4.82Z"/><path class="cls-2" d="m141.05,195.99c10.21-1,20.42-2.19,30.64-3.54-2.08,23.94-4.16,47.88-6.24,71.81,11.34-1.43,22.67-3.06,34.01-4.86-.65,7.31-1.3,14.61-1.95,21.92-21.55,3.38-43.09,6.16-64.64,8.04,2.73-31.11,5.46-62.23,8.2-93.37Z"/><path class="cls-2" d="m204.62,245.91c1.81-20.05,15.71-36.8,34.55-40.34,4.29-.8,12.41-.51,17.6,3.56,1.44-1.98,2.87-3.96,4.31-5.95,7.1-1.41,14.19-2.86,21.29-4.33-1.35,15.92-2.7,31.84-4.04,47.76-.36,4.71,1.06,6.73,3.97,6.12,1.84-.38,2.86-1.21,4.04-1.92.32,3.59.63,7.17.95,10.76-3.36,2.55-9.14,6.08-18.48,7.97-8.27,1.67-14.59-1.11-17.36-5.97-4.15,7.75-10.31,12.03-20.11,13.83-18.53,3.37-28.43-12.09-26.73-31.49Zm46.1-4.88c.38-5.06.77-10.13,1.15-15.2-2.19-1.89-4.61-2.81-8.13-2.14-5.67,1.08-9.59,7.81-10.55,18.03-1.08,10.69,1.87,15.87,7.84,14.75,5.21-.98,9.13-7.76,9.7-15.44Z"/><path class="cls-2" d="m332.59,232.02c-1.17-4.38-2.4-5.97-4.39-5.54-1.84.4-2.97,1.72-3.16,4.85-.7,8.54-1.4,17.07-2.1,25.61-9.55,2.05-19.1,4.1-28.64,6.11,2.68-31.43,5.36-62.87,8.04-94.31,9.63-2.82,19.27-5.66,28.9-8.51-1.59,19.12-3.17,38.24-4.76,57.36,7.41-10.96,14.82-21.92,22.22-32.87,9.85-2.11,19.71-4.21,29.56-6.26-8.18,11.58-16.36,23.19-24.54,34.82,1.33.95,3.31,3.92,4.65,6.73,3.67,8.02,3.79,14.63,9.92,13.33,1.84-.39,3.76-1.56,5.61-3.65.7,3.76,1.39,7.53,2.09,11.29-3.81,4.5-12.05,8.4-19.25,9.93-15.62,3.34-20.15-3.71-24.15-18.9Z"/><path class="cls-2" d="m378.63,210.8c1.28-20.79,19.24-38.31,39.15-42.12,12.71-2.44,24.16.33,25.19,12.04,1.01,11.44-8.25,24.46-35.48,35.49,1.24,3.46,5.72,4.74,9.61,4.77,7.64.08,16.07-4.88,22.07-11.03,1.74,4.47,3.49,8.95,5.23,13.43-7.84,8.16-16.52,13.73-30.92,16.51-23.44,4.57-36.03-10.76-34.84-29.09Zm43.6-21.67c.05-2.94-1.49-4.51-4.7-3.89-5.51,1.06-10.56,7.45-11.38,19.35,10.91-5.24,15.93-11.87,16.08-15.46Z"/><path class="cls-2" d="m455.6,253.57c.49-6.25.97-12.51,1.46-18.76,9.11,4.67,16.95,5.48,25.22,4.3,9.04-1.28,14.03-7.92,14.83-18.21.17-2.23.33-4.47.5-6.7-4,7.29-12.65,12.93-19.24,13.9-13.02,1.91-21.53-4.66-22.55-16.23-.72-8.22,4.34-26.65,3.87-31.97-.23-2.59-1.88-3.71-4.02-3.35-1.99.33-3.01,1.12-4.2,1.78-.32-3.6-.63-7.2-.95-10.8,3.32-2.88,11.59-6.11,18.94-7.24,9.04-1.4,17.81,1.41,18.76,12.24.75,8.54-4.5,17.6-3.7,26.75.33,3.81,2.69,5.95,6.37,5.45,4.75-.63,7.98-4.43,8.94-16.44.89-10.45,1.78-20.9,2.67-31.35,9.55-1.16,19.1-2.17,28.64-3.01-1.71,19.8-3.43,39.61-5.14,59.43-2.87,32.5-21.26,41.25-39.64,43.85-9.34,1.27-23.14-.29-30.75-3.64Z"/><path class="cls-1" d="m140.89,333.05c-1.54.19-2.59-.44-2.94-.82.02-.72.05-1.44.07-2.17.48.45,1.5.87,2.3.77,1.63-.2,2.37-1.06,2.5-3.74.32-6.43.65-12.86.97-19.3-1.1.14-2.2.28-3.29.42.03-.68.06-1.36.09-2.04,1.1-.14,2.2-.28,3.29-.42.02-.31.04-.63.05-.94.3-5.46,3.13-7.26,6.34-7.7.5-.07,1.31,0,1.74.06-.05.71-.11,1.43-.16,2.14-.34-.04-.69-.08-1.15-.01-2.13.29-3.6,1.41-3.78,5.08-.02.33-.03.65-.05.98,1.58-.21,3.17-.42,4.75-.64-.03.68-.06,1.36-.09,2.04-1.58.22-3.17.43-4.75.64-.33,6.5-.66,13.01-.99,19.51-.16,3.15-1.63,5.72-4.92,6.13Z"/><path class="cls-1" d="m153.56,313.09c.27-5.41,3.96-9.85,9.13-10.61,5.88-.87,9.61,3.58,9.34,8.91-.27,5.42-3.96,9.93-9.13,10.69-5.84.86-9.62-3.67-9.34-8.99Zm15.43-1.23c.25-4.86-2.51-7.57-6.09-7.04-3.38.5-6.08,3.71-6.29,7.85-.25,4.86,2.51,7.61,6.09,7.08,3.38-.5,6.07-3.83,6.29-7.88Z"/><path class="cls-1" d="m178.27,304.48c.07-1.49-.35-2.14-1.43-1.97-.42.07-.86.26-1.22.45-.05-.4-.1-.8-.15-1.2.85-.73,1.77-1.17,2.85-1.34,1.83-.29,3.15.68,2.97,3.75,1.09-2.89,2.78-4.69,4.95-5.05,2.5-.42,3.89.87,4.09,2.49.15,1.24-.76,3.13-2.35,3.4-.21.04-.52-.04-.52-.04.23-.59.33-1.15.26-1.65-.12-.95-.88-1.63-2.09-1.43-1.79.3-4.44,2.97-4.74,9.16-.13,2.55-.25,5.09-.38,7.64-1,.16-2,.32-3,.48.25-4.89.49-9.78.74-14.68Z"/><path class="cls-1" d="m215.04,310.17c-.37-2.98.93-6.94.52-10.3-.25-2.03-1.36-3.09-3.36-2.72-2.46.45-5.98,3.71-6.29,9.77-.12,2.49-.24,4.98-.35,7.47-1,.18-2,.36-3,.54.25-4.9.49-9.79.74-14.69.07-1.49-.35-2.14-1.43-1.95-.42.07-.86.28-1.22.47-.05-.4-.1-.8-.15-1.2.85-.74,1.77-1.2,2.85-1.39,1.83-.33,3.22.57,2.91,3.88,1.42-3.01,3.97-5.12,6.68-5.62,3.17-.58,5.19,1.24,5.54,4.1.48,3.85-.78,7.81-.42,10.7.12.95.67,1.23,1.46,1.08.42-.08.86-.29,1.22-.48.05.4.1.8.15,1.2-.85.71-1.77,1.22-2.85,1.42-1.54.29-2.76-.59-2.97-2.28Z"/><path class="cls-1" d="m224.09,301.33c.27-5.43,3.96-10.06,9.13-11.06,5.88-1.14,9.61,3.16,9.34,8.5-.27,5.43-3.96,10.09-9.13,11.09-5.84,1.13-9.61-3.2-9.34-8.54Zm15.42-1.95c.25-4.87-2.51-7.46-6.09-6.77-3.38.65-6.08,4-6.29,8.15-.25,4.87,2.5,7.48,6.09,6.79,3.38-.65,6.07-4.1,6.29-8.16Z"/><path class="cls-1" d="m248.8,291.62c.07-1.5-.35-2.13-1.43-1.92-.42.08-.86.3-1.22.5-.05-.4-.1-.8-.15-1.2.85-.76,1.77-1.24,2.85-1.45,1.84-.36,3.15.56,2.97,3.64,1.09-2.93,2.78-4.79,4.95-5.23,2.5-.5,3.9.74,4.09,2.35.15,1.24-.76,3.16-2.35,3.48-.21.04-.52-.02-.52-.02.23-.6.33-1.17.26-1.66-.12-.95-.88-1.6-2.09-1.36-1.79.36-4.44,3.13-4.74,9.33-.13,2.55-.25,5.1-.38,7.65-1,.2-2,.4-3,.6.25-4.9.49-9.8.74-14.71Z"/><path class="cls-1" d="m265.62,297.38c.19-3.65.38-7.3.57-10.95-.92.19-1.83.37-2.75.56.03-.68.06-1.37.09-2.05.93-.19,1.86-.38,2.79-.57.08-1.77.16-3.53.24-5.3,1.01-.39,2.01-.78,3.02-1.16-.09,1.95-.17,3.9-.26,5.85,1.5-.31,3-.61,4.5-.92-.03.68-.06,1.37-.09,2.05-1.51.31-3.03.62-4.54.93-.19,3.62-.38,7.24-.58,10.87-.12,2.48.74,3.57,2.58,3.2.83-.17,1.52-.52,2.13-1.07.18.46.37.91.55,1.37-.91.95-1.93,1.7-3.47,2.02-2.71.55-4.99-.93-4.79-4.82Z"/><path class="cls-1" d="m290.11,295.28c-.37-2.97.93-6.96.52-10.31-.25-2.02-1.36-3.06-3.37-2.65-2.46.51-5.98,3.85-6.29,9.93-.12,2.49-.24,4.99-.35,7.48-1,.21-2,.41-3,.61.44-8.55.87-17.11,1.31-25.66,1.01-.39,2.01-.78,3.02-1.17-.21,3.95-.42,7.9-.63,11.85,1.42-3.04,3.97-5.22,6.68-5.77,3.17-.65,5.19,1.13,5.54,3.98.48,3.84-.78,7.82-.42,10.71.12.95.66,1.22,1.46,1.05.42-.09.86-.3,1.22-.5.05.4.1.8.15,1.2-.85.72-1.77,1.25-2.85,1.47-1.54.32-2.76-.53-2.97-2.22Z"/><path class="cls-1" d="m306.71,284.72c.26-5.47,3.94-9.95,9.07-11,2.25-.46,4.32.05,5.36.85-.04.83-.08,1.65-.12,2.48-1.2-.69-2.74-1.39-4.91-.95-3.79.77-6.14,4.3-6.36,8.03-.25,4.2,2.01,7.25,6.3,6.37,2.04-.42,3.28-1.81,4.23-2.77.33.51.67,1.02,1,1.53-1.01,1.52-2.85,3.2-5.89,3.82-5.5,1.12-8.94-3.12-8.69-8.38Z"/><path class="cls-1" d="m325.26,281.23c.26-5.47,4.24-10.3,9.45-11.34,1.79-.36,3.75-.07,4.82.61.33-.53.67-1.06,1-1.59.58-.12,1.17-.23,1.75-.35-.26,5-.53,10.01-.79,15.01-.09,1.67.44,2.16,1.44,1.96.42-.08.86-.3,1.22-.49.05.4.1.8.15,1.2-.85.76-1.77,1.24-2.85,1.45-1.58.31-2.79-.42-2.88-2.18-1.09,1.87-3.19,3.56-5.65,4.05-5.09,1.02-7.9-3.06-7.66-8.32Zm13.45-.75c.13-2.55.25-5.1.38-7.65-.92-.54-2.22-1.04-4.35-.61-3.79.76-6.19,4.54-6.42,8.53-.22,4.07,1.56,7.09,5.32,6.34,2.38-.48,4.92-3.39,5.08-6.6Z"/><path class="cls-1" d="m349.81,271.14c.07-1.5-.35-2.13-1.43-1.92-.42.08-.86.29-1.22.49-.05-.4-.1-.8-.15-1.2.85-.76,1.77-1.23,2.85-1.45,1.83-.36,3.15.57,2.97,3.66,1.09-2.92,2.78-4.77,4.95-5.19,2.5-.48,3.9.78,4.09,2.39.15,1.24-.76,3.15-2.35,3.45-.21.04-.52-.03-.52-.03.23-.59.33-1.16.26-1.66-.12-.95-.88-1.61-2.09-1.38-1.79.34-4.44,3.1-4.74,9.29-.13,2.55-.25,5.1-.38,7.65-1,.19-2,.39-3,.58.25-4.9.49-9.8.74-14.7Z"/><path class="cls-1" d="m364.28,273.28c.27-5.42,3.96-10.06,9.13-11.01,5.88-1.08,9.62,3.3,9.34,8.63-.27,5.42-3.96,10.02-9.13,10.97-5.84,1.07-9.62-3.24-9.34-8.59Zm15.42-1.83c.25-4.87-2.5-7.51-6.09-6.85-3.38.62-6.08,3.96-6.29,8.11-.25,4.87,2.51,7.49,6.09,6.83,3.38-.62,6.07-4.03,6.29-8.09Z"/><path class="cls-1" d="m387.52,275.05c.37-7.32.75-14.63,1.12-21.95,1.01-.36,2.01-.72,3.02-1.08-.38,7.47-.77,14.95-1.15,22.42-.07,1.49.35,2.14,1.43,1.95.42-.07.86-.28,1.22-.46.05.4.1.8.15,1.2-.85.74-1.77,1.19-2.85,1.38-1.83.32-3.1-.6-2.94-3.46Z"/><path class="cls-1" d="m398.12,274.37c-.39-3.15,1.3-9.78.9-13.06-.12-.95-.66-1.24-1.46-1.11-.42.07-.86.27-1.22.46-.05-.4-.1-.8-.15-1.2.85-.69,1.77-1.19,2.85-1.37,1.54-.26,2.76.64,2.97,2.34.39,3.15-1.3,9.78-.9,13.06.12.95.67,1.24,1.46,1.11.42-.07.86-.27,1.22-.45.05.4.1.8.15,1.2-.85.69-1.77,1.18-2.85,1.36-1.54.26-2.76-.64-2.97-2.34Zm.77-21.37c0-1.02.82-2,1.82-2.17,1-.17,1.85.54,1.85,1.55,0,1.02-.82,2-1.82,2.16-1,.17-1.85-.54-1.85-1.55Z"/><path class="cls-1" d="m421.09,270.7c-.37-2.99.93-6.91.52-10.28-.25-2.04-1.36-3.14-3.36-2.84-2.46.37-5.98,3.55-6.29,9.61-.12,2.49-.24,4.98-.35,7.46-1,.16-2,.32-3,.48.25-4.89.49-9.79.74-14.68.07-1.49-.35-2.15-1.43-1.97-.42.07-.86.27-1.22.45-.05-.4-.1-.8-.15-1.2.85-.73,1.77-1.17,2.85-1.35,1.83-.29,3.22.63,2.91,3.94,1.42-2.98,3.97-5.02,6.68-5.44,3.17-.48,5.19,1.43,5.54,4.29.48,3.87-.78,7.78-.42,10.69.12.96.66,1.26,1.46,1.14.42-.06.86-.25,1.22-.43.05.4.1.8.15,1.21-.85.67-1.77,1.15-2.85,1.31-1.54.23-2.76-.69-2.97-2.39Z"/><path class="cls-1" d="m430.18,262.52c.26-5.45,4.24-10.05,9.45-10.74,1.79-.24,3.75.19,4.82.94.33-.51.67-1.02,1-1.52.58-.07,1.17-.15,1.75-.22-.26,4.98-.53,9.97-.79,14.95-.09,1.66.44,2.19,1.44,2.06.42-.05.86-.23,1.22-.4.05.4.1.81.15,1.21-.85.7-1.77,1.11-2.85,1.24-1.59.2-2.79-.62-2.88-2.38-1.09,1.79-3.19,3.33-5.65,3.66-5.09.69-7.9-3.56-7.66-8.8Zm13.45.13c.13-2.54.25-5.08.38-7.62-.92-.6-2.22-1.19-4.35-.91-3.8.5-6.19,4.14-6.42,8.11-.22,4.05,1.56,7.18,5.32,6.68,2.38-.32,4.92-3.06,5.08-6.25Z"/></svg>